<svg xmlns="http://www.w3.org/2000/svg" width="560.079" height="521.383" viewBox="0 0 560.079 521.383">
  <g id="Group_36" data-name="Group 36" transform="translate(-783.36 -132.099)">
    <ellipse id="Ellipse_10" data-name="Ellipse 10" cx="222.5" cy="211.5" rx="222.5" ry="211.5" transform="translate(867 218)" fill="#f8f8f7" opacity="0.206"/>
    <path id="Path_718" data-name="Path 718" d="M1377.041,1382.3v4.715l3.923,4.326,11.171,12.491,7.545,5.082,9.9-2.994,5.474-7.483v-8.99l10.481-10.222h5.585l5.183,3.075,11.967-10.786,45.305,51.312v3.575l-90.978,107.622,17.613,15.059V1541.9l7.4,1.89V1535.4l6.35,3.056v-7.219l8.361,2.78-1.81-8.2,7.762,2.651v-7.886l6.754,2.666v-7.214l6.123,2.6v-8.439l8.044,2.829-1.5-8.659,7.885,3.553v-8.665l5.865,2.387v-7.658l8.371,2.9v-8.518l6.146,3.036v-8.636l6.411,3.348v-7.61l7.369,1.883v-7.34l6.307,2.513v-7.879l6.5,2.288v-5.707l65.4,71.147,4.256,3.056h5.423l19.615-17.877v-4.548l-2.269-5.843-60.2-65.467,2.185-1.823v-6.739l7.457,2.056v-6.636l6.92,2.086V1426.4l7.416,2.1v-8.775l6.653,3.1v-8.076l6.8,2.774v-8.61l5.423,3.312v-8.393l8.365,3.513v-8.908l6.508,3.42v-7.66l6.585,2.72v-7.47l-6.585-4.8-9.461-2.351-13.514-6.015-12.722-6.8-12.389-8.742-9.642-8.79-45.031,53.967-45.237-50.611,13.311-11.04v-4.558l-2.237-4.837v-8.231l5.865-4.543,12.134-7.226,16.164-4.862,15.351-1.83,13.8,1.83h4.716l-2.8-5.079-9.761-4.466-21.3-6.5h-13.78l-18.146,1.58-19.786,9.385L1436.3,1322.1l-30.8,27.15,2.27,2.7,1.813,6.809-6.984,6.975-5.091,3.748h-5.369l-7.09,2.03-5.648,4.771Z" transform="translate(-430.998 -992.157)" fill="#f7f6f4"/>
    <path id="Exclusion_1" data-name="Exclusion 1" d="M-3706.162-320.206h0l-8.127-2.866-21.67-7.494-12.69-3.257-6.094-2.711-6.09-5.966-9.121-7.683-6.739-6.224,1.6-3.551,42.053-50.318,3.749-1.419,57.8,47.88v3.857l-8.5,9.776-19.629,23.042-6.545,6.935Zm-14.778-19.625-3.641,4.577,3.641,3.392,5.825-3.392-5.825-4.577h0Zm-8.969-53.334h0l-4.25,1.963-18,21.791v3.9l5.655,5.8,9.911,4.951,30.433,12.823h3.866l12.579-15.823-7.992-7.753-32.2-27.656Zm-31.13,31.669-3.331,4.951,3.331,5.184,4.91-5.184-4.91-4.951Z" transform="translate(4905.422 712.803)" fill="#f7f6f4"/>
    <path id="Path_730" data-name="Path 730" d="M304.415,0,249.172,26.7l21.37,10.245-21.37,32.682-38.159,32.366-34.77,19.815L124.172,140.53H64.87L0,127.979l7.135,31.407,52.119,11.949,64.918-5.907,65.28-24.9,37.029-24.183,38.875-37.3,22.69-31.854,16.369,10.856Z" transform="translate(1195.058 481.399) rotate(-120)" fill="#f7f6f4"/>
    <path id="Path_731" data-name="Path 731" d="M304.415,0,249.172,26.7l21.37,10.245-21.37,32.682-38.159,32.366-34.77,19.815L124.172,140.53H64.87L0,127.979l7.135,31.407,52.119,11.949,64.918-5.907,65.28-24.9,37.029-24.183,38.875-37.3,22.69-31.854,16.369,10.856Z" transform="matrix(-0.485, 0.875, -0.875, -0.485, 1080.797, 330.82)" fill="#f7f6f4"/>
    <path id="Path_727" data-name="Path 727" d="M689.719,2099.026l-55.243,26.7,21.37,10.245-21.37,32.682-38.159,32.366-34.77,19.815-52.072,18.722h-59.3l-64.87-12.551,7.135,31.407,52.119,11.949,64.918-5.907,65.28-24.9,37.029-24.183,38.875-37.3,22.69-31.854,16.369,10.856Z" transform="translate(622.587 -1616.879)" fill="#f7f6f4"/>
  </g>
</svg>
